<svg width="24" height="22" viewBox="0 0 24 22" fill="none" xmlns="http://www.w3.org/2000/svg">
<g id="basket">
<path id="Vector" d="M22.833 7.20839H20.1626L16.1542 1.19047C15.9948 0.951426 15.7469 0.785514 15.4651 0.729238C15.1833 0.672961 14.8907 0.73093 14.6517 0.890391C14.4126 1.04985 14.2467 1.29774 14.1904 1.57953C14.1342 1.86132 14.1921 2.15393 14.3516 2.39297L17.5593 7.20839H6.44L9.651 2.39297C9.81046 2.15393 9.86843 1.86132 9.81216 1.57953C9.75588 1.29774 9.58997 1.04985 9.35092 0.890391C9.11187 0.73093 8.81927 0.672961 8.53748 0.729238C8.25569 0.785514 8.0078 0.951426 7.84834 1.19047L3.83676 7.20839H1.16634C0.879023 7.20839 0.603473 7.32253 0.400309 7.52569C0.197144 7.72886 0.0830078 8.00441 0.0830078 8.29172C0.0830078 8.57904 0.197144 8.85459 0.400309 9.05776C0.603473 9.26092 0.879023 9.37506 1.16634 9.37506H2.24967V18.0417C2.24967 18.9037 2.59208 19.7303 3.20158 20.3398C3.81107 20.9493 4.63772 21.2917 5.49967 21.2917H18.4997C19.3616 21.2917 20.1883 20.9493 20.7978 20.3398C21.4073 19.7303 21.7497 18.9037 21.7497 18.0417V9.37506H22.833C23.1203 9.37506 23.3959 9.26092 23.599 9.05776C23.8022 8.85459 23.9163 8.57904 23.9163 8.29172C23.9163 8.00441 23.8022 7.72886 23.599 7.52569C23.3959 7.32253 23.1203 7.20839 22.833 7.20839ZM19.583 18.0417C19.583 18.329 19.4689 18.6046 19.2657 18.8078C19.0625 19.0109 18.787 19.1251 18.4997 19.1251H5.49967C5.21235 19.1251 4.9368 19.0109 4.73364 18.8078C4.53048 18.6046 4.41634 18.329 4.41634 18.0417V9.37506H19.583V18.0417Z" fill="white"/>
<path id="Vector_2" d="M7.66634 17.5C7.95366 17.5 8.22921 17.3859 8.43237 17.1827C8.63553 16.9795 8.74967 16.704 8.74967 16.4167V12.0833C8.74967 11.796 8.63553 11.5205 8.43237 11.3173C8.22921 11.1141 7.95366 11 7.66634 11C7.37902 11 7.10347 11.1141 6.90031 11.3173C6.69714 11.5205 6.58301 11.796 6.58301 12.0833V16.4167C6.58301 16.704 6.69714 16.9795 6.90031 17.1827C7.10347 17.3859 7.37902 17.5 7.66634 17.5Z" fill="white"/>
<path id="Vector_3" d="M11.9996 17.5C12.2869 17.5 12.5625 17.3859 12.7656 17.1827C12.9688 16.9795 13.0829 16.704 13.0829 16.4167V12.0833C13.0829 11.796 12.9688 11.5205 12.7656 11.3173C12.5625 11.1141 12.2869 11 11.9996 11C11.7123 11 11.4367 11.1141 11.2336 11.3173C11.0304 11.5205 10.9163 11.796 10.9163 12.0833V16.4167C10.9163 16.704 11.0304 16.9795 11.2336 17.1827C11.4367 17.3859 11.7123 17.5 11.9996 17.5Z" fill="white"/>
<path id="Vector_4" d="M16.3329 17.5C16.6202 17.5 16.8957 17.3859 17.0989 17.1827C17.3021 16.9795 17.4162 16.704 17.4162 16.4167V12.0833C17.4162 11.796 17.3021 11.5205 17.0989 11.3173C16.8957 11.1141 16.6202 11 16.3329 11C16.0455 11 15.77 11.1141 15.5668 11.3173C15.3636 11.5205 15.2495 11.796 15.2495 12.0833V16.4167C15.2495 16.704 15.3636 16.9795 15.5668 17.1827C15.77 17.3859 16.0455 17.5 16.3329 17.5Z" fill="white"/>
</g>
</svg>
