<svg width="134" height="42" viewBox="0 0 134 42" fill="none" xmlns="http://www.w3.org/2000/svg">
<g id="Group 8172">
<path id="Vector" d="M62.6786 42L89.0178 0H86.18L59.8408 42H62.6786Z" fill="#E31013"/>
<path id="Vector_2" d="M120.329 0.0227798C114.974 0.0227798 95.077 0 95.077 0L88.5785 10.4184C96.5236 10.4184 105.097 10.4184 109.452 10.4184C112.656 10.4184 113.906 11.3979 112.573 13.5241C111.187 15.7339 109.604 16.1971 105.06 16.1971C102.356 16.1971 91.9944 16.1971 84.9581 16.1971L78.9822 25.7726H98.1596C101.5 25.7726 102.371 26.8508 100.621 29.8199C98.864 32.789 93.0926 42 93.0926 42H112.83C112.83 42 117.087 35.2341 119.374 31.574C121.654 27.9063 122.404 23.8438 116.436 22.682C121.798 21.9226 127.797 20.3659 132.084 13.4862C137.332 5.06491 131.205 0.0227798 120.344 0.0227798" fill="white"/>
<path id="Vector_3" d="M69.9904 16.2047L63.993 25.8029H57.6771C53.7419 25.8029 52.6956 27.3824 51.2626 28.9618C48.6695 31.8322 48.1767 32.4701 45.25 35.8568C41.1102 40.6332 36.9248 42 28.9409 42H0L5.98228 32.4245H27.1439C33.6115 32.4245 36.6519 30.8602 39.844 27.2989C42.7176 24.0944 43.2407 23.4565 46.0764 20.4039C48.6695 17.6171 50.8911 16.1971 56.3502 16.1971H69.9904V16.2047ZM54.2651 0.00759519C46.2812 0.00759519 41.9821 1.37444 37.4328 6.15079C34.218 9.53752 33.6721 10.1754 30.8364 13.0457C29.2745 14.6252 28.0917 16.2123 24.1566 16.2123H16.1271L9.59894 26.661H26.0749C31.6325 26.661 33.9906 25.0132 36.6064 22.1732C39.4573 19.075 39.9956 18.4524 42.9754 15.2783C46.266 11.77 49.1699 10.426 55.5313 10.426H73.5995L80.0367 0.113905L80.0973 0H54.2575L54.2651 0.00759519Z" fill="white"/>
</g>
</svg>
