<svg width="58" height="58" viewBox="0 0 58 58" fill="none" xmlns="http://www.w3.org/2000/svg">
<g id="Group 25">
<rect id="background" width="58" height="58" rx="12" fill="#2F2F2F"/>
<g id="Group 8312">
<g id="Group 8311">
<path id="Vector" d="M38.1196 24.0815V27.0115C38.1196 27.0115 36.7892 26.9571 35.8039 26.6957C34.4287 26.3301 33.5444 25.7693 33.5444 25.7693C33.5444 25.7693 32.9343 25.3694 32.8849 25.3411V33.0656C32.8849 33.4957 32.772 34.5702 32.4279 35.4655C31.9786 36.6377 31.2853 37.4069 31.1578 37.5641C31.1578 37.5641 30.3142 38.6038 28.827 39.304C27.4866 39.9356 26.3093 39.9196 25.9569 39.9356C25.9569 39.9356 23.9223 40.0197 22.0906 38.7779L22.0814 38.7711C21.888 38.5757 21.706 38.3694 21.5362 38.1532C20.9517 37.4096 20.5934 36.5303 20.5033 36.2794C20.5032 36.2783 20.5032 36.2773 20.5033 36.2762C20.3585 35.8402 20.0541 34.7932 20.0957 33.7791C20.1692 31.9898 20.7725 30.8916 20.932 30.6165C21.3544 29.8662 21.9038 29.1949 22.5558 28.6326C23.1311 28.1473 23.7832 27.7611 24.4853 27.49C25.2444 27.1717 26.0572 27.001 26.8801 26.9873V29.9533C26.8801 29.9533 25.3747 29.4552 24.17 30.3372C23.3277 30.9899 22.8807 31.6265 22.7491 32.7636C22.7436 33.6004 22.9488 34.7845 24.0745 35.5742C24.2058 35.6611 24.3347 35.7381 24.4611 35.8055C24.6578 36.0722 24.8971 36.3046 25.1695 36.4933C26.2691 37.2195 27.1904 37.2702 28.3686 36.7986C29.1543 36.4832 29.7456 35.7726 30.0199 34.9851C30.1921 34.4934 30.1899 33.9984 30.1899 33.4866V18.9259H32.932C33.0453 19.5982 33.3588 20.5552 34.1879 21.503C34.5204 21.8609 34.895 22.1773 35.3035 22.4454C35.4241 22.5757 36.0411 23.2196 36.8331 23.6149C37.2426 23.8193 37.6743 23.9758 38.1196 24.0815Z" fill="white"/>
<path id="Vector_2" d="M24.4855 27.49C23.7834 27.7611 23.1313 28.1473 22.556 28.6326C21.9038 29.1962 21.3545 29.8689 20.9326 30.6206C20.7731 30.8948 20.1699 31.9939 20.0963 33.7832C20.0547 34.7973 20.3591 35.8443 20.504 36.2803C20.5038 36.2814 20.5038 36.2825 20.504 36.2835C20.5954 36.5321 20.9523 37.4114 21.5368 38.1573C21.7066 38.3735 21.8887 38.5798 22.082 38.7752C21.4624 38.3467 20.9098 37.8285 20.4423 37.2378C19.8628 36.5006 19.5054 35.6304 19.4121 35.3736C19.412 35.3718 19.412 35.3699 19.4121 35.3681V35.3649C19.2668 34.9294 18.9615 33.8819 19.004 32.8664C19.0776 31.0772 19.6809 29.9789 19.8404 29.7038C20.2621 28.952 20.8114 28.2793 21.4637 27.7158C22.0389 27.2303 22.691 26.8442 23.3932 26.5732C23.8312 26.3915 24.2875 26.2574 24.7542 26.1733C25.4576 26.0506 26.1759 26.0399 26.8826 26.1418V26.9873C26.0588 27.0008 25.2453 27.1714 24.4855 27.49Z" fill="white"/>
</g>
<path id="Vector_3" d="M32.9356 18.9195H30.1935V33.4806C30.1935 33.9925 30.1935 34.4861 30.0235 34.9792C29.7465 35.7662 29.1574 36.4769 28.3722 36.7922C27.1936 37.2657 26.2722 37.2131 25.1731 36.4869C24.9002 36.2991 24.6603 36.0674 24.4629 35.8014C25.3993 36.3009 26.2375 36.2922 27.2758 35.8754C28.0606 35.5601 28.6506 34.8494 28.9266 34.062C29.0994 33.5702 29.0971 33.0753 29.0971 32.5639V18H32.8835C32.8835 18 32.841 18.362 32.9356 18.9195ZM38.1209 23.2649V24.0752C37.6764 23.9693 37.2455 23.8127 36.8367 23.6085C36.0447 23.2132 35.4277 22.5693 35.3071 22.439C35.4471 22.531 35.5923 22.6146 35.7421 22.6895C36.7051 23.1703 37.6534 23.3138 38.1209 23.2649Z" fill="white"/>
</g>
</g>
</svg>
