<svg width="58" height="58" viewBox="0 0 58 58" fill="none" xmlns="http://www.w3.org/2000/svg">
<g id="Group 24">
<rect id="background" width="58" height="58" rx="12" fill="#2F2F2F"/>
<path id="Vector" d="M41.4776 23.0164C41.1901 21.9078 40.3429 21.0347 39.2673 20.7384C37.3177 20.2 29.5 20.2 29.5 20.2C29.5 20.2 21.6823 20.2 19.7327 20.7384C18.6571 21.0348 17.8099 21.9078 17.5224 23.0164C17 25.0258 17 29.2182 17 29.2182C17 29.2182 17 33.4106 17.5224 35.42C17.8099 36.5286 18.6571 37.3653 19.7327 37.6616C21.6823 38.2 29.5 38.2 29.5 38.2C29.5 38.2 37.3177 38.2 39.2673 37.6616C40.3429 37.3653 41.1901 36.5286 41.4776 35.42C42 33.4106 42 29.2182 42 29.2182C42 29.2182 42 25.0258 41.4776 23.0164ZM26.9432 33.0246V25.4118L33.4772 29.2183L26.9432 33.0246Z" fill="white"/>
</g>
</svg>
